<?xml version="1.0" standalone="no"?>
<!DOCTYPE svg PUBLIC "-//W3C//DTD SVG 20010904//EN"
 "http://www.w3.org/TR/2001/REC-SVG-20010904/DTD/svg10.dtd">
<svg version="1.0" xmlns="http://www.w3.org/2000/svg"
 width="260.000000pt" height="260.000000pt" viewBox="0 0 260.000000 260.000000"
 preserveAspectRatio="xMidYMid meet">
<metadata>
Created by potrace 1.14, written by Peter Selinger 2001-2017
</metadata>
<g transform="translate(0.000000,260.000000) scale(0.100000,-0.100000)"
fill="#000000" stroke="none">
<path d="M1614 1872 c-33 -3 -33 -4 -50 -92 -3 -14 -12 -54 -20 -90 -17 -74
-73 -332 -80 -370 -3 -14 -7 -32 -9 -40 -10 -35 -135 -614 -135 -627 0 -12 44
-13 273 -9 164 3 288 9 312 16 109 33 208 116 258 220 32 67 56 177 51 236 -5
69 -42 135 -88 161 -17 9 -15 12 15 33 103 71 168 202 169 336 0 98 -39 167
-117 205 -47 23 -56 24 -298 24 -137 0 -264 -1 -281 -3z m392 -242 c17 -6 36
-22 43 -36 15 -33 4 -96 -23 -137 -37 -55 -70 -67 -190 -68 -59 0 -109 1 -112
3 -2 3 8 59 23 125 l27 120 101 2 c55 0 114 -4 131 -9z m-62 -502 c14 -13 27
-34 29 -48 10 -66 -38 -160 -91 -182 -15 -6 -83 -12 -150 -14 l-124 -3 6 25
c4 14 16 69 26 122 11 53 22 103 25 110 3 9 38 12 129 12 115 0 127 -2 150
-22z"/>
<path d="M875 1845 c-8 -14 -22 -36 -30 -50 -8 -13 -121 -208 -251 -432 -280
-484 -380 -656 -406 -701 l-20 -33 128 3 c117 3 129 5 139 23 51 99 118 216
127 221 6 4 102 8 214 9 231 2 209 11 219 -95 3 -36 8 -74 10 -85 2 -11 4 -30
4 -42 1 -23 3 -23 127 -23 l125 0 -5 48 c-3 26 -14 106 -25 177 -11 72 -22
153 -26 180 -3 28 -8 57 -10 65 -2 8 -6 38 -10 65 -3 28 -13 97 -22 155 -8 58
-17 116 -18 130 -2 14 -8 54 -13 90 -6 36 -14 85 -17 110 -3 25 -10 70 -15
100 -6 30 -11 67 -12 82 l-2 26 -98 1 c-94 1 -98 0 -113 -24z m41 -350 c1 -9
5 -49 9 -91 3 -41 8 -85 10 -96 3 -12 7 -56 11 -97 l6 -76 -126 -3 c-69 -1
-126 0 -126 3 0 2 16 35 37 72 20 38 58 109 85 158 27 50 56 105 65 122 17 33
25 35 29 8z"/>
</g>
</svg>
